:FULLY-SPECIFIED
:FORCE-ALL-JOINTS-BE-3DOF
:DEGREES
1325
root -1.70074 14.5438 8.08709 352.38 30.634 363.114
lfemur 3.43152 0.678975 -15.1612
ltibia 55.9251 0 0
lfoot -30.7241 29.8849 0
ltoes -17.1558 0 0
rfemur -37.8207 -4.48791 -3.47327
rtibia 32.0087 0 0
rfoot 31.4446 1.44327 0
rtoes 5.15462 0 0
lowerback 12.4315 0.429827 -12.4551
upperback -1.43102 -1.34148 -0.0898891
thorax -8.32443 -0.0668357 7.20601
lowerneck -1.08291 -10.6611 -11.3786
upperneck 10.8408 -14.9597 9.89615
head 5.03551 -7.39347 3.9912
lclavicle 4.98926e-14 6.948e-15 0
lhumerus -71.1808 -19.6572 106.793
lradius 98.681 0 0
lwrist 62.85 0 0
lhand -13.4987 30.1863 0
lfingers 7.12502 0 0
lthumb 12.6124 -300.215 0
rclavicle 4.98926e-14 6.948e-15 0
rhumerus 63.5009 -0.748938 -33.572
rradius 77.8114 0 0
rwrist 27.1656 0 0
rhand -39.6032 -39.793 0
rfingers 7.12502 0 0
rthumb -12.5852 -69.3919 0
1326
root -1.71946 14.5208 8.24612 352.768 30.7109 363.177
lfemur 3.78105 0.647546 -14.9169
ltibia 55.3873 0 0
lfoot -30.458 30.2015 0
ltoes -16.7961 0 0
rfemur -38.6056 -5.13879 -2.96175
rtibia 33.4827 0 0
rfoot 29.8564 1.6898 0
rtoes 4.52247 0 0
lowerback 12.4032 0.48253 -12.4235
upperback -1.4888 -1.26807 -0.106827
thorax -8.3881 -0.0271743 7.15492
lowerneck -0.974125 -10.7289 -11.425
upperneck 10.6392 -15.052 9.96335
head 4.97601 -7.44291 4.02056
lclavicle 4.82999e-14 6.73975e-15 0
lhumerus -71.2569 -19.5822 106.689
lradius 98.8245 0 0
lwrist 62.7763 0 0
lhand -13.5829 30.7769 0
lfingers 7.12502 0 0
lthumb 12.5312 -299.619 0
rclavicle 4.82999e-14 6.73975e-15 0
rhumerus 63.4461 -1.30824 -33.288
rradius 77.92 0 0
rwrist 27.3605 0 0
rhand -39.8056 -39.4044 0
rfingers 7.12502 0 0
rthumb -12.7802 -68.9893 0
1327
root -1.73817 14.4978 8.40515 353.157 30.7877 363.241
lfemur 4.13057 0.616116 -14.6727
ltibia 54.8496 0 0
lfoot -30.1918 30.518 0
ltoes -16.4363 0 0
rfemur -39.3905 -5.78966 -2.45023
rtibia 34.9566 0 0
rfoot 28.2682 1.93634 0
rtoes 3.89031 0 0
lowerback 12.3749 0.535233 -12.3918
upperback -1.54657 -1.19466 -0.123766
thorax -8.45176 0.012487 7.10382
lowerneck -0.865343 -10.7968 -11.4714
upperneck 10.4377 -15.1444 10.0305
head 4.91651 -7.49236 4.04993
lclavicle 4.67073e-14 6.5315e-15 0
lhumerus -71.3331 -19.5072 106.584
lradius 98.9679 0 0
lwrist 62.7027 0 0
lhand -13.6671 31.3675 0
lfingers 7.12502 0 0
lthumb 12.4501 -299.024 0
rclavicle 4.67073e-14 6.5315e-15 0
rhumerus 63.3913 -1.86753 -33.004
rradius 78.0287 0 0
rwrist 27.5555 0 0
rhand -40.008 -39.0159 0
rfingers 7.12502 0 0
rthumb -12.9752 -68.5868 0
1328
root -1.75688 14.4748 8.56418 353.545 30.8646 363.304
lfemur 4.4801 0.584687 -14.4284
ltibia 54.3119 0 0
lfoot -29.9257 30.8346 0
ltoes -16.0766 0 0
rfemur -40.1754 -6.44054 -1.93871
rtibia 36.4306 0 0
rfoot 26.68 2.18288 0
rtoes 3.25816 0 0
lowerback 12.3466 0.587937 -12.3601
upperback -1.60434 -1.12125 -0.140704
thorax -8.51542 0.0521483 7.05273
lowerneck -0.75656 -10.8646 -11.5178
upperneck 10.2361 -15.2367 10.0977
head 4.85701 -7.54181 4.07929
lclavicle 4.51146e-14 6.32325e-15 0
lhumerus -71.4092 -19.4322 106.48
lradius 99.1114 0 0
lwrist 62.6291 0 0
lhand -13.7512 31.9581 0
lfingers 7.12502 0 0
lthumb 12.3689 -298.429 0
rclavicle 4.51146e-14 6.32325e-15 0
rhumerus 63.3365 -2.42683 -32.72
rradius 78.1373 0 0
rwrist 27.7504 0 0
rhand -40.2104 -38.6273 0
rfingers 7.12502 0 0
rthumb -13.1702 -68.1842 0
1329
root -1.77559 14.4518 8.72321 353.934 30.9414 363.367
lfemur 4.82962 0.553257 -14.1842
ltibia 53.7741 0 0
lfoot -29.6596 31.1511 0
ltoes -15.7168 0 0
rfemur -40.9603 -7.09141 -1.42719
rtibia 37.9045 0 0
rfoot 25.0918 2.42942 0
rtoes 2.626 0 0
lowerback 12.3183 0.64064 -12.3285
upperback -1.66212 -1.04784 -0.157643
thorax -8.57909 0.0918097 7.00163
lowerneck -0.647778 -10.9325 -11.5642
upperneck 10.0346 -15.329 10.1649
head 4.79751 -7.59125 4.10865
lclavicle 4.3522e-14 6.115e-15 0
lhumerus -71.4854 -19.3572 106.375
lradius 99.2548 0 0
lwrist 62.5555 0 0
lhand -13.8354 32.5487 0
lfingers 7.12502 0 0
lthumb 12.2877 -297.834 0
rclavicle 4.3522e-14 6.115e-15 0
rhumerus 63.2817 -2.98613 -32.436
rradius 78.246 0 0
rwrist 27.9454 0 0
rhand -40.4128 -38.2387 0
rfingers 7.12502 0 0
rthumb -13.3652 -67.7817 0
1330
root -1.79431 14.4288 8.88224 354.323 31.0183 363.43
lfemur 5.17914 0.521827 -13.9399
ltibia 53.2364 0 0
lfoot -29.3935 31.4677 0
ltoes -15.3571 0 0
rfemur -41.7452 -7.74229 -0.915673
rtibia 39.3785 0 0
rfoot 23.5036 2.67595 0
rtoes 1.99385 0 0
lowerback 12.2899 0.693343 -12.2968
upperback -1.71989 -0.974435 -0.174581
thorax -8.64275 0.131471 6.95054
lowerneck -0.538996 -11.0003 -11.6106
upperneck 9.83303 -15.4213 10.2321
head 4.73802 -7.6407 4.13801
lclavicle 4.19293e-14 5.90675e-15 0
lhumerus -71.5616 -19.2823 106.27
lradius 99.3983 0 0
lwrist 62.4818 0 0
lhand -13.9196 33.1393 0
lfingers 7.12502 0 0
lthumb 12.2065 -297.238 0
rclavicle 4.19293e-14 5.90675e-15 0
rhumerus 63.2268 -3.54543 -32.152
rradius 78.3547 0 0
rwrist 28.1403 0 0
rhand -40.6151 -37.8501 0
rfingers 7.12502 0 0
rthumb -13.5602 -67.3791 0
1331
root -1.81302 14.4058 9.04127 354.711 31.0951 363.494
lfemur 5.52867 0.490398 -13.6957
ltibia 52.6987 0 0
lfoot -29.1273 31.7842 0
ltoes -14.9973 0 0
rfemur -42.5301 -8.39316 -0.404153
rtibia 40.8524 0 0
rfoot 21.9154 2.92249 0
rtoes 1.36169 0 0
lowerback 12.2616 0.746046 -12.2651
upperback -1.77766 -0.901026 -0.191519
thorax -8.70641 0.171132 6.89944
lowerneck -0.430213 -11.0682 -11.657
upperneck 9.63149 -15.5137 10.2993
head 4.67852 -7.69015 4.16737
lclavicle 4.03367e-14 5.6985e-15 0
lhumerus -71.6377 -19.2073 106.166
lradius 99.5417 0 0
lwrist 62.4082 0 0
lhand -14.0038 33.7299 0
lfingers 7.12502 0 0
lthumb 12.1253 -296.643 0
rclavicle 4.03367e-14 5.6985e-15 0
rhumerus 63.172 -4.10473 -31.868
rradius 78.4633 0 0
rwrist 28.3353 0 0
rhand -40.8175 -37.4615 0
rfingers 7.12502 0 0
rthumb -13.7552 -66.9766 0
